 PTC IGES file: 343434.igs                                              S      1
1H,,1H;,31HCOPY_OF_U107338_22986967_NEW_01,10H343434.igs,               G      1
27HCreo Parametric by PTC Inc.,7H2024493,32,38,7,38,15,                 G      2
31HCOPY_OF_U107338_22986967_NEW_01,1.,2,2HMM,32768,0.5,                 G      3
15H20261005.154707,0.0374985,    375.,7HU107338,7HUnknown,10,0,         G      4
15H20261005.154707;                                                     G      5
     314       1       1       1       0       0       0       001000200D      1
     314       0       4       1       0                   COLOR       1D      2
     314       2       1       1       0       0       0       001000200D      3
     314       0       4       1       0                   COLOR       2D      4
     314       3       1       1       0       0       0       001000200D      5
     314       0       1       1       0                   COLOR       3D      6
     314       4       1       1       0       0       0       001000200D      7
     314       0       2       1       0                   COLOR       4D      8
     314       5       1       1       0       0       0       001000200D      9
     314       0       2       1       0                   COLOR       5D     10
     314       6       1       1       0       0       0       001000200D     11
     314       0       8       1       0                   COLOR       6D     12
     314       7       1       1       0       0       0       001000200D     13
     314       0       8       1       0                   COLOR       7D     14
     314       8       1       1       0       0       0       001000200D     15
     314       0       8       1       0                   COLOR       8D     16
     314       9       1       1       0       0       0       001000200D     17
     314       0       5       1       0                   COLOR       9D     18
     314      10       1       1       0       0       0       001000200D     19
     314       0       8       1       0                   COLOR      10D     20
     314      11       1       1       0       0       0       001000200D     21
     314       0       8       1       0                   COLOR      11D     22
     406      12       1       1       0       0       0       001000000D     23
     406       0       0       1      15                    PROP       1D     24
     110      13       1       4       2       0       0       001000000D     25
     110       0      -1       2       0                    LINE       1D     26
     406      15       1       1       0       0       0       001000000D     27
     406       0       0       1      15                    PROP       2D     28
     402      16       1       1       0       0       0       001000301D     29
     402       0       0       1       7                   LAYER       1D     30
314,0D0,0D0,9.411764705882D1;                                          1P      1
314,1.1D0,1.2D0,1D2;                                                   3P      2
314,4.1D1,2.61589D1,1.12848D1;                                         5P      3
314,5.04854D1,1.5455D0,1.5455D0;                                       7P      4
314,6D1,4D1,2D1;                                                       9P      5
314,6.35294D1,6.86275D1,7.4902D1;                                     11P      6
314,6.40777D1,6.40777D1,6.40777D1;                                    13P      7
314,6.69062D1,6.69903D1,6.55217D1;                                    15P      8
314,9.21569D1,7.05882D1,4.70588D1;                                    17P      9
314,1D2,1D2,5.3D1;                                                    19P     10
314,1D2,1D2,9.49D1;                                                   21P     11
406,1,3HA_1;                                                          23P     12
110,-1.084256043648D3,8.240150043197D2,-5.4651D3,                     25P     13
-9.037417242680D2,9.282349952063D2,-5.4651D3,0,1,23;                  25P     14
406,1,4HAXIS;                                                         27P     15
402,1,25,0,1,27;                                                      29P     16
S      1G      5D     30P     16                                        T      1
