ISO-10303-21;
HEADER;
FILE_DESCRIPTION((''),'2;1');
FILE_NAME('343434_ASM','2026-10-05T16:05:20',('U107338'),(''),
'CREO PARAMETRIC BY PTC INC, 2024493','CREO PARAMETRIC BY PTC INC, 2024493','');
FILE_SCHEMA(('CONFIG_CONTROL_DESIGN'));
ENDSEC;
DATA;
#1=CARTESIAN_POINT('',(0.E0,0.E0,0.E0));
#2=DIRECTION('',(0.E0,1.E0,0.E0));
#3=DIRECTION('',(0.E0,0.E0,-1.E0));
#4=AXIS2_PLACEMENT_3D('MAIN',#1,#2,#3);
#5=CARTESIAN_POINT('',(-9.939988839580E2,8.761249997630E2,-5.4651E3));
#6=DIRECTION('',(8.660254037844E-1,5.E-1,0.E0));
#7=DIRECTION('',(0.E0,0.E0,1.E0));
#8=AXIS2_PLACEMENT_3D('CS29',#5,#6,#7);
#9=CARTESIAN_POINT('',(-7.792932877230E2,8.818439984150E2,-5.4651E3));
#10=DIRECTION('',(8.660254037844E-1,5.E-1,0.E0));
#11=DIRECTION('',(0.E0,0.E0,1.E0));
#12=AXIS2_PLACEMENT_3D('CS46',#9,#10,#11);
#13=CARTESIAN_POINT('',(-6.224E2,8.98E2,-5.462542770614E3));
#14=DIRECTION('',(-4.357756317390E-1,6.223520998442E-1,-6.502133977410E-1));
#15=DIRECTION('',(3.729470835408E-1,-5.326236339859E-1,-7.597516287564E-1));
#16=AXIS2_PLACEMENT_3D('CS30',#13,#14,#15);
#17=CARTESIAN_POINT('',(-5.002E2,9.494E2,-5.4618E3));
#18=DIRECTION('',(0.E0,0.E0,1.E0));
#19=DIRECTION('',(0.E0,-1.E0,0.E0));
#20=AXIS2_PLACEMENT_3D('CS45',#17,#18,#19);
#21=CARTESIAN_POINT('',(-4.119E2,9.556E2,-5.4679E3));
#22=DIRECTION('',(0.E0,0.E0,1.E0));
#23=DIRECTION('',(0.E0,-1.E0,0.E0));
#24=AXIS2_PLACEMENT_3D('CS47',#21,#22,#23);
#25=CARTESIAN_POINT('',(-3.357E2,9.813E2,-5.4429E3));
#26=DIRECTION('',(0.E0,0.E0,1.E0));
#27=DIRECTION('',(0.E0,-1.E0,0.E0));
#28=AXIS2_PLACEMENT_3D('CS31',#25,#26,#27);
#29=CARTESIAN_POINT('',(-3.448E2,1.0771E3,-5.5506E3));
#30=DIRECTION('',(0.E0,0.E0,1.E0));
#31=DIRECTION('',(0.E0,-1.E0,0.E0));
#32=AXIS2_PLACEMENT_3D('CS44',#29,#30,#31);
#33=CARTESIAN_POINT('',(-3.839112958940E2,1.06E3,-5.6494E3));
#34=DIRECTION('',(0.E0,0.E0,-1.E0));
#35=DIRECTION('',(1.E0,0.E0,0.E0));
#36=AXIS2_PLACEMENT_3D('CS33',#33,#34,#35);
#37=CARTESIAN_POINT('',(-3.839112958940E2,1.06E3,-5.8984E3));
#38=DIRECTION('',(0.E0,1.E0,0.E0));
#39=DIRECTION('',(0.E0,0.E0,-1.E0));
#40=AXIS2_PLACEMENT_3D('CS34',#37,#38,#39);
#41=CARTESIAN_POINT('',(-3.839112958940E2,1.06E3,-6.2E3));
#42=DIRECTION('',(0.E0,0.E0,-1.E0));
#43=DIRECTION('',(1.E0,0.E0,0.E0));
#44=AXIS2_PLACEMENT_3D('CS35',#41,#42,#43);
#45=CARTESIAN_POINT('',(-3.839112958940E2,1.06E3,-6.5E3));
#46=DIRECTION('',(0.E0,0.E0,-1.E0));
#47=DIRECTION('',(1.E0,0.E0,0.E0));
#48=AXIS2_PLACEMENT_3D('CS36',#45,#46,#47);
#49=CARTESIAN_POINT('',(-3.839112958940E2,1.06E3,-6.8E3));
#50=DIRECTION('',(0.E0,0.E0,-1.E0));
#51=DIRECTION('',(1.E0,0.E0,0.E0));
#52=AXIS2_PLACEMENT_3D('CS37',#49,#50,#51);
#53=CARTESIAN_POINT('',(-2.911E2,9.835E2,-7.105E3));
#54=DIRECTION('',(0.E0,0.E0,-1.E0));
#55=DIRECTION('',(1.E0,0.E0,0.E0));
#56=AXIS2_PLACEMENT_3D('CS42',#53,#54,#55);
#57=CARTESIAN_POINT('',(-4.21E2,9.787E2,-7.1134E3));
#58=DIRECTION('',(0.E0,1.E0,0.E0));
#59=DIRECTION('',(0.E0,0.E0,-1.E0));
#60=AXIS2_PLACEMENT_3D('CS38',#57,#58,#59);
#61=CARTESIAN_POINT('',(-4.465E2,1.0538E3,-7.1552E3));
#62=DIRECTION('',(0.E0,-9.396926207859E-1,3.420201433257E-1));
#63=DIRECTION('',(0.E0,-3.420201433257E-1,-9.396926207859E-1));
#64=AXIS2_PLACEMENT_3D('CS40',#61,#62,#63);
#65=CARTESIAN_POINT('',(-4.468006169800E2,1.144028673617E3,-7.205385569114E3));
#66=DIRECTION('',(0.E0,1.E0,0.E0));
#67=DIRECTION('',(0.E0,0.E0,-1.E0));
#68=AXIS2_PLACEMENT_3D('CS41',#65,#66,#67);
#70=DIMENSIONAL_EXPONENTS(0.E0,0.E0,0.E0,0.E0,0.E0,0.E0,0.E0);
#72=PLANE_ANGLE_MEASURE_WITH_UNIT(PLANE_ANGLE_MEASURE(1.745329251994E-2),#71);
#73=(CONVERSION_BASED_UNIT('DEGREE',#72)NAMED_UNIT(*)PLANE_ANGLE_UNIT());
#75=UNCERTAINTY_MEASURE_WITH_UNIT(LENGTH_MEASURE(3.74985E-2),#69,'closure',
'Maximum model space distance between geometric entities at asserted connectivities');
#76=(GEOMETRIC_REPRESENTATION_CONTEXT(3)GLOBAL_UNCERTAINTY_ASSIGNED_CONTEXT(
(#75))GLOBAL_UNIT_ASSIGNED_CONTEXT((#69,#73,#74))REPRESENTATION_CONTEXT('ID1',
'3'));
#77=CARTESIAN_POINT('',(0.E0,0.E0,0.E0));
#78=DIRECTION('',(0.E0,0.E0,1.E0));
#79=DIRECTION('',(1.E0,0.E0,0.E0));
#82=APPLICATION_CONTEXT(
'CONFIGURATION CONTROLLED 3D DESIGNS OF MECHANICAL PARTS AND ASSEMBLIES');
#83=APPLICATION_PROTOCOL_DEFINITION('international standard',
'config_control_design',1994,#82);
#84=DESIGN_CONTEXT('',#82,'design');
#85=MECHANICAL_CONTEXT('',#82,'mechanical');
#86=PRODUCT('COPY_OF_U107338_22986967_NEW_01','COPY_OF_U107338_22986967_NEW_01',
'NOT SPECIFIED',(#85));
#87=PRODUCT_DEFINITION_FORMATION_WITH_SPECIFIED_SOURCE('1','LAST_VERSION',#86,
.MADE.);
#96=CARTESIAN_POINT('',(0.E0,0.E0,0.E0));
#97=DIRECTION('',(0.E0,0.E0,1.E0));
#98=DIRECTION('',(1.E0,0.E0,0.E0));
#99=AXIS2_PLACEMENT_3D('',#96,#97,#98);
#100=ITEM_DEFINED_TRANSFORMATION('','',#80,#99);
#101=(REPRESENTATION_RELATIONSHIP('','',#81,#93)REPRESENTATION_RELATIONSHIP_WITH_TRANSFORMATION(#100)SHAPE_REPRESENTATION_RELATIONSHIP());
#102=CONTEXT_DEPENDENT_SHAPE_REPRESENTATION(#101,#95);
#104=DIMENSIONAL_EXPONENTS(0.E0,0.E0,0.E0,0.E0,0.E0,0.E0,0.E0);
#106=PLANE_ANGLE_MEASURE_WITH_UNIT(PLANE_ANGLE_MEASURE(1.745329251994E-2),#105);
#107=(CONVERSION_BASED_UNIT('DEGREE',#106)NAMED_UNIT(*)PLANE_ANGLE_UNIT());
#109=UNCERTAINTY_MEASURE_WITH_UNIT(LENGTH_MEASURE(3.74985E-2),#103,'closure',
'Maximum model space distance between geometric entities at asserted connectivities');
#110=(GEOMETRIC_REPRESENTATION_CONTEXT(3)GLOBAL_UNCERTAINTY_ASSIGNED_CONTEXT((
#109))GLOBAL_UNIT_ASSIGNED_CONTEXT((#103,#107,#108))REPRESENTATION_CONTEXT
('ID2','3'));
#111=CARTESIAN_POINT('',(0.E0,0.E0,0.E0));
#112=DIRECTION('',(0.E0,0.E0,1.E0));
#113=DIRECTION('',(1.E0,0.E0,0.E0));
#115=MECHANICAL_CONTEXT('',#82,'mechanical');
#116=PRODUCT('343434_ASM','343434_ASM','NOT SPECIFIED',(#115));
#117=PRODUCT_DEFINITION_FORMATION_WITH_SPECIFIED_SOURCE('1','LAST_VERSION',#116,
.MADE.);
#119=PRODUCT_CATEGORY('part','');
#120=PRODUCT_RELATED_PRODUCT_CATEGORY('assembly','',(#116));
#121=PRODUCT_CATEGORY_RELATIONSHIP('','',#119,#120);
#122=PRODUCT_CATEGORY('part','');
#123=PRODUCT_RELATED_PRODUCT_CATEGORY('detail','',(#86));
#124=PRODUCT_CATEGORY_RELATIONSHIP('','',#122,#123);
#125=SECURITY_CLASSIFICATION_LEVEL('unclassified');
#126=SECURITY_CLASSIFICATION('','',#125);
#127=CC_DESIGN_SECURITY_CLASSIFICATION(#126,(#87,#117,#94));
#128=APPROVAL_STATUS('approved');
#129=APPROVAL(#128,'');
#130=CC_DESIGN_APPROVAL(#129,(#126,#87,#117,#88,#118));
#131=CALENDAR_DATE(126,5,10);
#132=COORDINATED_UNIVERSAL_TIME_OFFSET(9,0,.AHEAD.);
#133=LOCAL_TIME(16,5,2.E1,#132);
#134=DATE_AND_TIME(#131,#133);
#135=APPROVAL_DATE_TIME(#134,#129);
#136=DATE_TIME_ROLE('creation_date');
#137=CC_DESIGN_DATE_AND_TIME_ASSIGNMENT(#134,#136,(#88,#118));
#138=DATE_TIME_ROLE('classification_date');
#139=CC_DESIGN_DATE_AND_TIME_ASSIGNMENT(#134,#138,(#126));
#140=PERSON('UNSPECIFIED','UNSPECIFIED',$,$,$,$);
#141=ORGANIZATION('UNSPECIFIED','UNSPECIFIED','UNSPECIFIED');
#142=PERSON_AND_ORGANIZATION(#140,#141);
#143=APPROVAL_ROLE('approver');
#144=APPROVAL_PERSON_ORGANIZATION(#142,#129,#143);
#145=PERSON_AND_ORGANIZATION_ROLE('creator');
#146=CC_DESIGN_PERSON_AND_ORGANIZATION_ASSIGNMENT(#142,#145,(#87,#117,#88,
#118));
#147=PERSON_AND_ORGANIZATION_ROLE('design_supplier');
#148=CC_DESIGN_PERSON_AND_ORGANIZATION_ASSIGNMENT(#142,#147,(#87,#117));
#149=PERSON_AND_ORGANIZATION_ROLE('classification_officer');
#150=CC_DESIGN_PERSON_AND_ORGANIZATION_ASSIGNMENT(#142,#149,(#126));
#151=PERSON_AND_ORGANIZATION_ROLE('design_owner');
#152=CC_DESIGN_PERSON_AND_ORGANIZATION_ASSIGNMENT(#142,#151,(#116,#86));
#69=(LENGTH_UNIT()NAMED_UNIT(*)SI_UNIT(.MILLI.,.METRE.));
#71=(NAMED_UNIT(*)PLANE_ANGLE_UNIT()SI_UNIT($,.RADIAN.));
#74=(NAMED_UNIT(*)SI_UNIT($,.STERADIAN.)SOLID_ANGLE_UNIT());
#80=AXIS2_PLACEMENT_3D('',#77,#78,#79);
#81=SHAPE_REPRESENTATION('',(#80,#4,#8,#12,#16,#20,#24,#28,#32,#36,#40,#44,#48,
#52,#56,#60,#64,#68),#76);
#88=PRODUCT_DEFINITION('design','',#87,#84);
#89=PRODUCT_DEFINITION_SHAPE('','SHAPE FOR COPY_OF_U107338_22986967_NEW_01.',
#88);
#90=SHAPE_DEFINITION_REPRESENTATION(#89,#81);
#91=SHAPE_DEFINITION_REPRESENTATION(#92,#93);
#92=PRODUCT_DEFINITION_SHAPE('','SHAPE FOR 343434_ASM.',#118);
#93=SHAPE_REPRESENTATION('',(#99,#114),#110);
#94=NEXT_ASSEMBLY_USAGE_OCCURRENCE('0','Next assembly relationship',
'COPY_OF_U107338_22986967_NEW_01',#118,#88,$);
#95=PRODUCT_DEFINITION_SHAPE('Placement #0',
'Placement of COPY_OF_U107338_22986967_NEW_01 with respect to 343434_ASM',#94);
#103=(LENGTH_UNIT()NAMED_UNIT(*)SI_UNIT(.MILLI.,.METRE.));
#105=(NAMED_UNIT(*)PLANE_ANGLE_UNIT()SI_UNIT($,.RADIAN.));
#108=(NAMED_UNIT(*)SI_UNIT($,.STERADIAN.)SOLID_ANGLE_UNIT());
#114=AXIS2_PLACEMENT_3D('',#111,#112,#113);
#118=PRODUCT_DEFINITION('design','',#117,#84);
ENDSEC;
END-ISO-10303-21;
