ISO-10303-21;
HEADER;
FILE_DESCRIPTION((''),'2;1');
FILE_NAME('route_343434','2026-10-05T16:33:00',('U107338'),(''),'Route Studio','Route Studio','');
FILE_SCHEMA(('CONFIG_CONTROL_DESIGN'));
ENDSEC;
DATA;
#1=CARTESIAN_POINT('',(-9.939988839580E2,8.761249997630E2,-5.465100000000E3));
#2=DIRECTION('',(9.996403147671E-1,2.681864596869E-2,3.634079105993E-5));
#3=DIRECTION('',(-3.632771983803E-5,-9.746108103021E-7,9.999999993397E-1));
#4=AXIS2_PLACEMENT_3D('CS29',#1,#2,#3);
#5=CARTESIAN_POINT('',(-7.792932877230E2,8.818439984150E2,-5.465100000000E3));
#6=DIRECTION('',(9.985099277805E-1,5.452647483780E-2,2.188073461548E-3));
#7=DIRECTION('',(-2.190058444017E-3,-2.334856211100E-5,9.999976015466E-1));
#8=AXIS2_PLACEMENT_3D('CS46',#5,#6,#7);
#9=CARTESIAN_POINT('',(-6.224000000000E2,8.980000000000E2,-5.462542770614E3));
#10=DIRECTION('',(9.592911308974E-1,2.466880595904E-1,1.374973724738E-1));
#11=DIRECTION('',(-1.356746825570E-1,-2.445585464345E-2,9.904515594852E-1));
#12=AXIS2_PLACEMENT_3D('CS30',#9,#10,#11);
#13=CARTESIAN_POINT('',(-5.002000000000E2,9.494000000000E2,-5.461800000000E3));
#14=DIRECTION('',(8.512024094315E-1,3.314295256182E-1,-4.069507681851E-1));
#15=DIRECTION('',(3.509502387207E-1,2.171002008561E-1,9.108794830987E-1));
#16=AXIS2_PLACEMENT_3D('CS45',#13,#14,#15);
#17=CARTESIAN_POINT('',(-4.119000000000E2,9.556000000000E2,-5.467900000000E3));
#18=DIRECTION('',(9.153603690128E-1,-6.079303539740E-2,3.980195996279E-1));
#19=DIRECTION('',(-3.794441711127E-1,2.004028887174E-1,9.032501332424E-1));
#20=AXIS2_PLACEMENT_3D('CS47',#17,#18,#19);
#21=CARTESIAN_POINT('',(-3.357000000000E2,9.813000000000E2,-5.442900000000E3));
#22=DIRECTION('',(7.684643968555E-1,6.350669892776E-1,-7.843717164362E-2));
#23=DIRECTION('',(-1.910325446152E-1,3.446748957368E-1,9.190787687389E-1));
#24=AXIS2_PLACEMENT_3D('CS31',#21,#22,#23);
#25=CARTESIAN_POINT('',(-3.448000000000E2,1.077100000000E3,-5.550600000000E3));
#26=DIRECTION('',(-7.220825742619E-1,-8.967916068222E-2,-6.859696816089E-1));
#27=DIRECTION('',(-3.101488420465E-1,9.282966178440E-1,2.051172471455E-1));
#28=AXIS2_PLACEMENT_3D('CS44',#25,#26,#27);
#29=CARTESIAN_POINT('',(-3.839112958940E2,1.060000000000E3,-5.649400000000E3));
#30=DIRECTION('',(-3.331758315572E-2,-1.411058247263E-1,-9.894337192965E-1));
#31=DIRECTION('',(-4.700286233520E-1,8.758844666946E-1,-1.090848029422E-1));
#32=AXIS2_PLACEMENT_3D('CS33',#29,#30,#31);
#33=CARTESIAN_POINT('',(-3.839112958940E2,1.060000000000E3,-5.898400000000E3));
#34=DIRECTION('',(9.831742451594E-4,3.022455602774E-3,-9.999949490525E-1));
#35=DIRECTION('',(-4.673476832202E-1,8.840708384661E-1,2.212591828979E-3));
#36=AXIS2_PLACEMENT_3D('CS34',#33,#34,#35);
#37=CARTESIAN_POINT('',(-3.839112958940E2,1.060000000000E3,-6.200000000000E3));
#38=DIRECTION('',(-7.248370608987E-5,3.399249858283E-5,-9.999999967953E-1));
#39=DIRECTION('',(-4.673467687902E-1,8.840740883063E-1,6.392691322978E-5));
#40=AXIS2_PLACEMENT_3D('CS35',#37,#38,#39);
#41=CARTESIAN_POINT('',(-3.839112958940E2,1.060000000000E3,-6.500000000000E3));
#42=DIRECTION('',(-6.411968936590E-3,-5.269884385198E-4,-9.999793042546E-1));
#43=DIRECTION('',(-4.673389265341E-1,8.840746140528E-1,2.530717954496E-3));
#44=AXIS2_PLACEMENT_3D('CS36',#41,#42,#43);
#45=CARTESIAN_POINT('',(-3.839112958940E2,1.060000000000E3,-6.800000000000E3));
#46=DIRECTION('',(3.933963678062E-1,3.774173573998E-2,-9.185939577312E-1));
#47=DIRECTION('',(-4.364179919026E-1,8.870756140666E-1,-1.504532860129E-1));
#48=AXIS2_PLACEMENT_3D('CS37',#45,#46,#47);
#49=CARTESIAN_POINT('',(-2.911000000000E2,9.835000000000E2,-7.105000000000E3));
#50=DIRECTION('',(-6.709783043843E-1,-6.495782434510E-1,-3.575419145788E-1));
#51=DIRECTION('',(-3.878645923490E-1,7.184535694346E-1,-5.773954680881E-1));
#52=AXIS2_PLACEMENT_3D('CS42',#49,#50,#51);
#53=CARTESIAN_POINT('',(-4.210000000000E2,9.787000000000E2,-7.113400000000E3));
#54=DIRECTION('',(-7.127741759531E-1,6.746257803118E-1,-1.919193336615E-1));
#55=DIRECTION('',(6.459851806394E-1,5.248206938760E-1,-5.543161423537E-1));
#56=AXIS2_PLACEMENT_3D('CS38',#53,#54,#55);
#57=CARTESIAN_POINT('',(-4.465000000000E2,1.053800000000E3,-7.155200000000E3));
#58=DIRECTION('',(1.505291243723E-1,8.044837514666E-1,-5.745840898789E-1));
#59=DIRECTION('',(9.548109499275E-1,-2.689722816926E-1,-1.264514198406E-1));
#60=AXIS2_PLACEMENT_3D('CS40',#57,#58,#59);
#61=CARTESIAN_POINT('',(-4.468006169800E2,1.144028673617E3,-7.205385569114E3));
#62=DIRECTION('',(2.409166123655E-3,8.640467034030E-1,-5.034058901692E-1));
#63=DIRECTION('',(9.681547763158E-1,-1.280391273472E-1,-2.151332400283E-1));
#64=AXIS2_PLACEMENT_3D('CS41',#61,#62,#63);
#65=CARTESIAN_POINT('RP002',(-9.671340000000E2,8.767480000000E2,-5.465121000000E3));
#66=CARTESIAN_POINT('RP003',(-9.402630000000E2,8.772310000000E2,-5.465173000000E3));
#67=CARTESIAN_POINT('RP004',(-9.133900000000E2,8.776570000000E2,-5.465237000000E3));
#68=CARTESIAN_POINT('RP005',(-8.865170000000E2,8.781090000000E2,-5.465296000000E3));
#69=CARTESIAN_POINT('RP006',(-8.596500000000E2,8.786710000000E2,-5.465331000000E3));
#70=CARTESIAN_POINT('RP007',(-8.327910000000E2,8.794270000000E2,-5.465321000000E3));
#71=CARTESIAN_POINT('RP008',(-8.059450000000E2,8.804610000000E2,-5.465250000000E3));
#72=CARTESIAN_POINT('RP010',(-7.529370000000E2,8.832480000000E2,-5.465251000000E3));
#73=CARTESIAN_POINT('RP011',(-7.266120000000E2,8.846020000000E2,-5.465778000000E3));
#74=CARTESIAN_POINT('RP012',(-7.003170000000E2,8.863260000000E2,-5.466231000000E3));
#75=CARTESIAN_POINT('RP013',(-6.740510000000E2,8.888530000000E2,-5.466150000000E3));
#76=CARTESIAN_POINT('RP014',(-6.479490000000E2,8.926160000000E2,-5.465077000000E3));
#77=CARTESIAN_POINT('RP016',(-5.966570000000E2,9.059950000000E2,-5.457588000000E3));
#78=CARTESIAN_POINT('RP017',(-5.720600000000E2,9.161600000000E2,-5.451401000000E3));
#79=CARTESIAN_POINT('RP018',(-5.475160000000E2,9.275180000000E2,-5.448092000000E3));
#80=CARTESIAN_POINT('RP019',(-5.229780000000E2,9.390390000000E2,-5.451726000000E3));
#81=CARTESIAN_POINT('RP021',(-4.722920000000E2,9.568130000000E2,-5.472379000000E3));
#82=CARTESIAN_POINT('RP022',(-4.415630000000E2,9.581380000000E2,-5.475126000000E3));
#83=CARTESIAN_POINT('RP024',(-3.868940000000E2,9.565740000000E2,-5.454759000000E3));
#84=CARTESIAN_POINT('RP025',(-3.601610000000E2,9.654990000000E2,-5.444807000000E3));
#85=CARTESIAN_POINT('RP027',(-3.157540000000E2,1.002372000000E3,-5.449454000000E3));
#86=CARTESIAN_POINT('RP028',(-3.037390000000E2,1.025760000000E3,-5.463703000000E3));
#87=CARTESIAN_POINT('RP029',(-3.012690000000E2,1.047559000000E3,-5.483684000000E3));
#88=CARTESIAN_POINT('RP030',(-3.082810000000E2,1.064675000000E3,-5.506805000000E3));
#89=CARTESIAN_POINT('RP031',(-3.241020000000E2,1.075138000000E3,-5.530170000000E3));
#90=CARTESIAN_POINT('RP033',(-3.631160000000E2,1.072405000000E3,-5.570460000000E3));
#91=CARTESIAN_POINT('RP034',(-3.765160000000E2,1.069155000000E3,-5.595005000000E3));
#92=CARTESIAN_POINT('RP035',(-3.824500000000E2,1.064756000000E3,-5.621981000000E3));
#93=CARTESIAN_POINT('RP037',(-3.849290000000E2,1.057166000000E3,-5.677007000000E3));
#94=CARTESIAN_POINT('RP038',(-3.853780000000E2,1.055631000000E3,-5.704717000000E3));
#95=CARTESIAN_POINT('RP039',(-3.855370000000E2,1.055217000000E3,-5.732305000000E3));
#96=CARTESIAN_POINT('RP040',(-3.854040000000E2,1.055592000000E3,-5.760162000000E3));
#97=CARTESIAN_POINT('RP041',(-3.850990000000E2,1.056495000000E3,-5.787852000000E3));
#98=CARTESIAN_POINT('RP042',(-3.847080000000E2,1.057647000000E3,-5.815354000000E3));
#99=CARTESIAN_POINT('RP043',(-3.843180000000E2,1.058797000000E3,-5.843064000000E3));
#100=CARTESIAN_POINT('RP044',(-3.840220000000E2,1.059672000000E3,-5.870752000000E3));
#101=CARTESIAN_POINT('RP046',(-3.839220000000E2,1.059973000000E3,-5.926069000000E3));
#102=CARTESIAN_POINT('RP047',(-3.839280000000E2,1.059957000000E3,-5.953488000000E3));
#103=CARTESIAN_POINT('RP048',(-3.839310000000E2,1.059949000000E3,-5.980906000000E3));
#104=CARTESIAN_POINT('RP049',(-3.839310000000E2,1.059948000000E3,-6.008324000000E3));
#105=CARTESIAN_POINT('RP050',(-3.839300000000E2,1.059952000000E3,-6.035742000000E3));
#106=CARTESIAN_POINT('RP051',(-3.839270000000E2,1.059960000000E3,-6.063161000000E3));
#107=CARTESIAN_POINT('RP052',(-3.839230000000E2,1.059970000000E3,-6.090579000000E3));
#108=CARTESIAN_POINT('RP053',(-3.839190000000E2,1.059981000000E3,-6.117997000000E3));
#109=CARTESIAN_POINT('RP054',(-3.839150000000E2,1.059991000000E3,-6.145415000000E3));
#110=CARTESIAN_POINT('RP055',(-3.839130000000E2,1.059997000000E3,-6.172582000000E3));
#111=CARTESIAN_POINT('RP057',(-3.839210000000E2,1.059999000000E3,-6.227522000000E3));
#112=CARTESIAN_POINT('RP058',(-3.839470000000E2,1.059996000000E3,-6.254546000000E3));
#113=CARTESIAN_POINT('RP059',(-3.839830000000E2,1.059991000000E3,-6.281818000000E3));
#114=CARTESIAN_POINT('RP060',(-3.840240000000E2,1.059986000000E3,-6.309091000000E3));
#115=CARTESIAN_POINT('RP061',(-3.840620000000E2,1.059982000000E3,-6.336364000000E3));
#116=CARTESIAN_POINT('RP062',(-3.840920000000E2,1.059978000000E3,-6.363637000000E3));
#117=CARTESIAN_POINT('RP063',(-3.841080000000E2,1.059976000000E3,-6.390910000000E3));
#118=CARTESIAN_POINT('RP064',(-3.841040000000E2,1.059977000000E3,-6.418182000000E3));
#119=CARTESIAN_POINT('RP065',(-3.840740000000E2,1.059980000000E3,-6.445455000000E3));
#120=CARTESIAN_POINT('RP066',(-3.840120000000E2,1.059988000000E3,-6.472728000000E3));
#121=CARTESIAN_POINT('RP068',(-3.847120000000E2,1.059925000000E3,-6.527719000000E3));
#122=CARTESIAN_POINT('RP069',(-3.869470000000E2,1.059709000000E3,-6.555252000000E3));
#123=CARTESIAN_POINT('RP070',(-3.900240000000E2,1.059410000000E3,-6.582469000000E3));
#124=CARTESIAN_POINT('RP071',(-3.934750000000E2,1.059074000000E3,-6.609765000000E3));
#125=CARTESIAN_POINT('RP072',(-3.968350000000E2,1.058747000000E3,-6.637287000000E3));
#126=CARTESIAN_POINT('RP073',(-3.995610000000E2,1.058481000000E3,-6.664667000000E3));
#127=CARTESIAN_POINT('RP074',(-4.011580000000E2,1.058324000000E3,-6.692291000000E3));
#128=CARTESIAN_POINT('RP075',(-4.010190000000E2,1.058337000000E3,-6.719777000000E3));
#129=CARTESIAN_POINT('RP076',(-3.984970000000E2,1.058582000000E3,-6.747229000000E3));
#130=CARTESIAN_POINT('RP077',(-3.929280000000E2,1.059123000000E3,-6.774250000000E3));
#131=CARTESIAN_POINT('RP079',(-3.712410000000E2,1.061140000000E3,-6.825390000000E3));
#132=CARTESIAN_POINT('RP080',(-3.568770000000E2,1.062122000000E3,-6.850011000000E3));
#133=CARTESIAN_POINT('RP081',(-3.418920000000E2,1.062704000000E3,-6.874117000000E3));
#134=CARTESIAN_POINT('RP082',(-3.268450000000E2,1.062720000000E3,-6.897932000000E3));
#135=CARTESIAN_POINT('RP083',(-3.117780000000E2,1.061976000000E3,-6.922197000000E3));
#136=CARTESIAN_POINT('RP084',(-2.973970000000E2,1.060239000000E3,-6.946578000000E3));
#137=CARTESIAN_POINT('RP085',(-2.841010000000E2,1.057208000000E3,-6.971308000000E3));
#138=CARTESIAN_POINT('RP086',(-2.724950000000E2,1.052291000000E3,-6.996844000000E3));
#139=CARTESIAN_POINT('RP087',(-2.637290000000E2,1.045074000000E3,-7.022579000000E3));
#140=CARTESIAN_POINT('RP088',(-2.599200000000E2,1.034147000000E3,-7.048525000000E3));
#141=CARTESIAN_POINT('RP089',(-2.636350000000E2,1.019158000000E3,-7.072185000000E3));
#142=CARTESIAN_POINT('RP090',(-2.747200000000E2,1.001952000000E3,-7.091507000000E3));
#143=CARTESIAN_POINT('RP092',(-3.134220000000E2,9.662230000000E2,-7.111833000000E3));
#144=CARTESIAN_POINT('RP093',(-3.402310000000E2,9.555250000000E2,-7.113162000000E3));
#145=CARTESIAN_POINT('RP094',(-3.693440000000E2,9.539520000000E2,-7.111512000000E3));
#146=CARTESIAN_POINT('RP095',(-3.972500000000E2,9.622420000000E2,-7.110496000000E3));
#147=CARTESIAN_POINT('RP097',(-4.392840000000E2,1.002335000000E3,-7.122572000000E3));
#148=CARTESIAN_POINT('RP098',(-4.477850000000E2,1.028483000000E3,-7.137383000000E3));
#149=CARTESIAN_POINT('RP100',(-4.427130000000E2,1.074992000000E3,-7.169426000000E3));
#150=CARTESIAN_POINT('RP101',(-4.434300000000E2,1.097828000000E3,-7.182085000000E3));
#151=CARTESIAN_POINT('RP102',(-4.456850000000E2,1.121115000000E3,-7.193395000000E3));
#152=(LENGTH_UNIT()NAMED_UNIT(*)SI_UNIT(.MILLI.,.METRE.));
#153=(NAMED_UNIT(*)PLANE_ANGLE_UNIT()SI_UNIT($,.RADIAN.));
#154=(NAMED_UNIT(*)SI_UNIT($,.STERADIAN.)SOLID_ANGLE_UNIT());
#155=UNCERTAINTY_MEASURE_WITH_UNIT(LENGTH_MEASURE(1.000000000000E-3),#152,'closure','');
#156=(GEOMETRIC_REPRESENTATION_CONTEXT(3)GLOBAL_UNCERTAINTY_ASSIGNED_CONTEXT((#155))GLOBAL_UNIT_ASSIGNED_CONTEXT((#152,#153,#154))REPRESENTATION_CONTEXT('ID1','3'));
#157=SHAPE_REPRESENTATION('ROUTE',(#4,#8,#12,#16,#20,#24,#28,#32,#36,#40,#44,#48,#52,#56,#60,#64,#65,#66,#67,#68,#69,#70,#71,#72,#73,#74,#75,#76,#77,#78,#79,#80,#81,#82,#83,#84,#85,#86,#87,#88,#89,#90,#91,#92,#93,#94,#95,#96,#97,#98,#99,#100,#101,#102,#103,#104,#105,#106,#107,#108,#109,#110,#111,#112,#113,#114,#115,#116,#117,#118,#119,#120,#121,#122,#123,#124,#125,#126,#127,#128,#129,#130,#131,#132,#133,#134,#135,#136,#137,#138,#139,#140,#141,#142,#143,#144,#145,#146,#147,#148,#149,#150,#151),#156);
#158=APPLICATION_CONTEXT('CONFIGURATION CONTROLLED 3D DESIGNS OF MECHANICAL PARTS AND ASSEMBLIES');
#159=APPLICATION_PROTOCOL_DEFINITION('international standard','config_control_design',1994,#158);
#160=MECHANICAL_CONTEXT('',#158,'mechanical');
#161=DESIGN_CONTEXT('',#158,'design');
#162=PRODUCT('ROUTE_343434','ROUTE_343434','NOT SPECIFIED',(#160));
#163=PRODUCT_DEFINITION_FORMATION_WITH_SPECIFIED_SOURCE('1','LAST_VERSION',#162,.MADE.);
#164=PRODUCT_DEFINITION('design','',#163,#161);
#165=PRODUCT_DEFINITION_SHAPE('','SHAPE FOR ROUTE_343434.',#164);
#166=SHAPE_DEFINITION_REPRESENTATION(#165,#157);
ENDSEC;
END-ISO-10303-21;
