!
!       DATUM POINT ARRAY DATA FILE
!
! Hose route through the 16 coordinate systems of 343434_ASM, in CSYS order.
! Hose minimum bend radius 65 mm.
! Worst case over four spline fits: R 76.8 mm  (x1.18 the limit).
! Geometric ceiling for this station set is R 78.0 mm, set by the 94 deg corner at CS31.
! 103 points, length 2843 mm. The 16 station points are exact.
! Station rows: CS29=1, CS46=9, CS30=15, CS45=20, CS47=23, CS31=26, CS44=32, CS33=36, CS34=45, CS35=56, CS36=67, CS37=78, CS42=91, CS38=96, CS40=99, CS41=103
!
! Enter values with respect to datum arrays' coordinate system:
!
!CARTESIAN coordinates:
!        X                Y                Z
!
       -993.999         876.125       -5465.100
       -967.134         876.748       -5465.121
       -940.263         877.231       -5465.173
       -913.390         877.657       -5465.237
       -886.517         878.109       -5465.296
       -859.650         878.671       -5465.331
       -832.791         879.427       -5465.321
       -805.945         880.461       -5465.250
       -779.293         881.844       -5465.100
       -752.937         883.248       -5465.251
       -726.612         884.602       -5465.778
       -700.317         886.326       -5466.231
       -674.051         888.853       -5466.150
       -647.949         892.616       -5465.077
       -622.400         898.000       -5462.543
       -596.657         905.995       -5457.588
       -572.060         916.160       -5451.401
       -547.516         927.518       -5448.092
       -522.978         939.039       -5451.726
       -500.200         949.400       -5461.800
       -472.292         956.813       -5472.379
       -441.563         958.138       -5475.126
       -411.900         955.600       -5467.900
       -386.894         956.574       -5454.759
       -360.161         965.499       -5444.807
       -335.700         981.300       -5442.900
       -315.754        1002.372       -5449.454
       -303.739        1025.760       -5463.703
       -301.269        1047.559       -5483.684
       -308.281        1064.675       -5506.805
       -324.102        1075.138       -5530.170
       -344.800        1077.100       -5550.600
       -363.116        1072.405       -5570.460
       -376.516        1069.155       -5595.005
       -382.450        1064.756       -5621.981
       -383.911        1060.000       -5649.400
       -384.929        1057.166       -5677.007
       -385.378        1055.631       -5704.717
       -385.537        1055.217       -5732.305
       -385.404        1055.592       -5760.162
       -385.099        1056.495       -5787.852
       -384.708        1057.647       -5815.354
       -384.318        1058.797       -5843.064
       -384.022        1059.672       -5870.752
       -383.911        1060.000       -5898.400
       -383.922        1059.973       -5926.069
       -383.928        1059.957       -5953.488
       -383.931        1059.949       -5980.906
       -383.931        1059.948       -6008.324
       -383.930        1059.952       -6035.742
       -383.927        1059.960       -6063.161
       -383.923        1059.970       -6090.579
       -383.919        1059.981       -6117.997
       -383.915        1059.991       -6145.415
       -383.913        1059.997       -6172.582
       -383.911        1060.000       -6200.000
       -383.921        1059.999       -6227.522
       -383.947        1059.996       -6254.546
       -383.983        1059.991       -6281.818
       -384.024        1059.986       -6309.091
       -384.062        1059.982       -6336.364
       -384.092        1059.978       -6363.637
       -384.108        1059.976       -6390.910
       -384.104        1059.977       -6418.182
       -384.074        1059.980       -6445.455
       -384.012        1059.988       -6472.728
       -383.911        1060.000       -6500.000
       -384.712        1059.925       -6527.719
       -386.947        1059.709       -6555.252
       -390.024        1059.410       -6582.469
       -393.475        1059.074       -6609.765
       -396.835        1058.747       -6637.287
       -399.561        1058.481       -6664.667
       -401.158        1058.324       -6692.291
       -401.019        1058.337       -6719.777
       -398.497        1058.582       -6747.229
       -392.928        1059.123       -6774.250
       -383.911        1060.000       -6800.000
       -371.241        1061.140       -6825.390
       -356.877        1062.122       -6850.011
       -341.892        1062.704       -6874.117
       -326.845        1062.720       -6897.932
       -311.778        1061.976       -6922.197
       -297.397        1060.239       -6946.578
       -284.101        1057.208       -6971.308
       -272.495        1052.291       -6996.844
       -263.729        1045.074       -7022.579
       -259.920        1034.147       -7048.525
       -263.635        1019.158       -7072.185
       -274.720        1001.952       -7091.507
       -291.100         983.500       -7105.000
       -313.422         966.223       -7111.833
       -340.231         955.525       -7113.162
       -369.344         953.952       -7111.512
       -397.250         962.242       -7110.496
       -421.000         978.700       -7113.400
       -439.284        1002.335       -7122.572
       -447.785        1028.483       -7137.383
       -446.500        1053.800       -7155.200
       -442.713        1074.992       -7169.426
       -443.430        1097.828       -7182.085
       -445.685        1121.115       -7193.395
       -446.801        1144.029       -7205.386
